<?xml version="1.0" standalone="no"?>
<!DOCTYPE svg PUBLIC "-//W3C//DTD SVG 20010904//EN"
 "http://www.w3.org/TR/2001/REC-SVG-20010904/DTD/svg10.dtd">
<svg version="1.0" xmlns="http://www.w3.org/2000/svg"
 width="759.000000pt" height="202.000000pt" viewBox="0 0 759.000000 202.000000"
 preserveAspectRatio="xMidYMid meet">

<g transform="translate(0.000000,202.000000) scale(0.100000,-0.100000)"
fill="#FFFFFF" stroke="none">
<path d="M990 1458 c-245 -294 -326 -396 -318 -403 13 -13 590 642 586 664 -8
43 -45 7 -268 -261z"/>
<path d="M1297 1577 c-67 -62 -206 -190 -310 -286 -103 -95 -192 -182 -198
-194 -11 -20 -11 -20 17 1 51 37 127 102 388 327 188 163 255 226 255 243 1
13 -5 22 -15 22 -8 0 -70 -51 -137 -113z"/>
<path d="M2082 1545 c-96 -21 -190 -82 -232 -150 -38 -61 -11 -59 46 4 89 98
201 138 333 120 86 -12 140 -38 202 -96 191 -178 140 -483 -101 -597 -58 -27
-74 -30 -155 -30 -55 1 -106 7 -132 17 -39 14 -53 14 -53 -4 0 -13 76 -38 136
-44 124 -14 248 29 336 118 74 74 110 148 116 240 13 214 -128 392 -338 426
-78 13 -79 13 -158 -4z"/>
<path d="M2777 1553 c-4 -3 -7 -183 -7 -400 0 -343 2 -393 15 -393 13 0 15 51
15 400 0 220 -4 400 -8 400 -5 0 -12 -3 -15 -7z"/>
<path d="M3099 1550 c-75 -22 -116 -89 -104 -170 10 -64 15 -72 140 -200 123
-127 152 -177 142 -250 -4 -35 -3 -40 14 -40 16 0 19 8 19 58 0 86 -32 140
-146 251 -118 115 -134 140 -134 208 0 44 5 58 29 85 25 28 34 32 79 31 33 0
64 -8 86 -21 25 -15 38 -18 42 -10 10 15 -29 45 -74 58 -42 11 -57 11 -93 0z"/>
<path d="M3510 1160 c0 -349 2 -400 15 -400 13 0 15 51 15 400 0 349 -2 400
-15 400 -13 0 -15 -51 -15 -400z"/>
<path d="M4080 1160 c0 -260 4 -400 10 -400 7 0 10 140 10 400 0 260 -3 400
-10 400 -6 0 -10 -140 -10 -400z"/>
<path d="M4297 1553 c-4 -3 -7 -183 -7 -400 0 -343 2 -393 15 -393 13 0 15 51
15 400 0 220 -4 400 -8 400 -5 0 -12 -3 -15 -7z"/>
<path d="M4931 1550 c-18 -4 -47 -22 -64 -39 -27 -26 -32 -39 -35 -94 -6 -86
8 -110 135 -234 115 -114 142 -159 143 -240 0 -40 4 -53 15 -53 15 0 20 28 15
95 -4 58 -30 97 -143 213 -63 64 -119 127 -126 139 -17 33 -14 110 6 140 35
53 124 63 184 22 22 -15 29 -16 38 -6 8 11 2 18 -27 34 -46 25 -96 33 -141 23z"/>
<path d="M5340 1262 c0 -342 5 -374 67 -434 37 -36 60 -48 116 -62 20 -5 27
-3 27 9 0 8 -7 15 -15 15 -27 0 -92 38 -118 70 -15 17 -31 47 -37 68 -6 22
-10 161 -10 335 0 257 -2 297 -15 297 -13 0 -15 -40 -15 -298z"/>
<path d="M5788 1554 c-5 -4 -8 -138 -8 -297 0 -193 -4 -303 -12 -329 -16 -53
-80 -116 -135 -131 -51 -13 -61 -40 -10 -30 89 17 160 89 172 177 8 59 2 619
-7 610z"/>
<path d="M6097 1546 c-48 -18 -67 -34 -84 -73 -37 -89 -10 -149 127 -289 119
-121 143 -160 143 -241 0 -62 22 -74 33 -19 15 83 -12 134 -147 271 -138 140
-161 191 -122 272 30 64 121 80 184 34 23 -17 29 -18 38 -7 9 11 5 18 -21 34
-45 27 -105 34 -151 18z"/>
<path d="M6510 1160 c0 -349 2 -400 15 -400 17 0 18 13 17 185 -1 61 -2 224
-2 363 0 217 -2 252 -15 252 -13 0 -15 -51 -15 -400z"/>
<path d="M7087 1553 c-4 -3 -7 -183 -7 -400 0 -343 2 -393 15 -393 13 0 15 51
15 400 0 220 -4 400 -8 400 -5 0 -12 -3 -15 -7z"/>
<path d="M3850 1210 l0 -139 -147 -3 c-124 -3 -148 -5 -148 -18 0 -13 24 -15
148 -18 l147 -3 0 -134 c0 -113 2 -135 15 -135 13 0 15 39 15 295 0 256 -2
295 -15 295 -13 0 -15 -22 -15 -140z"/>
<path d="M6858 1208 l-3 -143 -147 -3 c-85 -1 -148 -7 -148 -12 0 -5 63 -11
148 -12 l147 -3 3 -137 c2 -114 5 -138 17 -138 13 0 15 42 15 295 0 253 -2
295 -15 295 -12 0 -15 -25 -17 -142z"/>
<path d="M488 917 c-73 -23 -78 -33 -78 -157 0 -122 7 -137 76 -166 48 -20
170 -18 219 5 64 29 66 35 63 167 l-3 119 -40 20 c-48 24 -181 31 -237 12z
m201 -22 c40 -20 45 -41 16 -63 -46 -36 -152 -39 -217 -5 -16 7 -28 19 -28 27
0 14 26 40 50 49 32 12 152 7 179 -8z"/>
<path d="M533 878 c-28 -14 -29 -24 -4 -38 49 -26 164 0 134 31 -16 16 -103
21 -130 7z"/>
<path d="M3226 823 c-30 -22 -49 -28 -87 -27 -41 0 -49 -3 -49 -18 0 -45 153
-5 188 50 21 32 -3 30 -52 -5z"/>
<path d="M5056 818 c-19 -14 -45 -22 -80 -23 -36 -1 -51 -6 -51 -16 0 -37 127
-14 170 31 25 26 26 30 9 30 -10 0 -32 -10 -48 -22z"/>
<path d="M6227 817 c-21 -16 -42 -22 -78 -22 -39 0 -49 -3 -46 -15 7 -36 155
-2 178 41 14 27 -18 24 -54 -4z"/>
</g>
</svg>
