<svg width="113" height="102" viewBox="0 0 113 102" fill="none" xmlns="http://www.w3.org/2000/svg">
<path d="M24.6667 2.99996C19.0667 8.59996 23.8667 17.4 31.6 15.8C35.0667 15.1333 36.5333 15.8 41.4667 20.3333C44.6667 23.2666 48 25.6666 48.9333 25.6666C49.8667 25.6666 47.6 22.8666 43.7333 19.5333C37.6 14.3333 36.8 13 37.4667 9.66663C38.1333 6.99996 37.4667 5.13329 35.4667 3.13329C32 -0.333375 28.1333 -0.466709 24.6667 2.99996Z" fill="black"/>
<path d="M92.2667 5.39998C90.9334 6.73331 90 9.53331 90 11.4C90 14.0666 88.4 16.2 83.3334 19.9333C79.7334 22.6 76.6667 25.4 76.6667 25.9333C76.6667 27.5333 77.0667 27.4 84.6667 21.6666C90.5334 17.2666 92.1334 16.7333 94.4 17.8C100.133 21 107.333 13.5333 104.267 7.66664C101.6 2.46664 95.8667 1.39998 92.2667 5.39998Z" fill="black"/>
<path d="M57.0667 23.1333C51.7334 24.7333 46.5334 30.7333 45.4667 37C44.8001 40.6 45.2001 43.2667 47.3334 47.6667C56.0001 65.5333 82.5334 57.8 80.2667 38.0667C79.4667 30.8667 74.4001 24.8667 67.4667 23C62.0001 21.5333 62.8001 21.5333 57.0667 23.1333Z" fill="black"/>
<path d="M3.46669 49.1333C1.86669 51.1333 0.666687 54.2 0.666687 55.9333C0.666687 59.9333 6.66669 65.6666 10.8 65.6666C14.8 65.6666 20.8 60.4666 21.0667 56.7333C21.2 54.3333 22.6667 53.2666 28.2667 51.6666C32.1334 50.6 37.0667 49.2666 39.3334 48.8666C43.2 48.0666 46.2667 45.6666 43.4667 45.6666C42.6667 45.6666 37.4667 46.8666 32 48.4666L22 51.1333L18.5334 48.4666C13.4667 44.4666 6.93335 44.8666 3.46669 49.1333Z" fill="black"/>
<path d="M80.6667 49.5333C80.6667 50.2 84.2667 51.9333 88.6667 53.5333C94.4 55.6666 96.6667 57.1333 96.6667 58.8666C96.6667 62.0666 100.8 65.6666 104.4 65.6666C107.467 65.6666 112.667 61.4 112.667 58.8666C112.667 56.3333 110 52.4666 107.333 51C105.333 49.9333 103.6 50.0666 100.267 51.6666C96.2667 53.5333 95.3334 53.5333 88.2667 51.1333C84.1334 49.6666 80.6667 49 80.6667 49.5333Z" fill="black"/>
<path d="M57.4667 60.4666C57.2 61.5333 55.8667 66.7333 54.6667 71.9333C52.6667 80.4666 52 81.6666 49.3333 81.6666C46.1333 81.6666 42.8 84.8666 41.4667 89.1333C39.4667 95.8 47.3333 103 54.6667 101.133C57.8667 100.333 62 94.3333 62 90.4666C62 89.4 60.4 86.6 58.4 84.3333L54.9333 80.0666L57.2 70.0666C58.5333 64.6 59.2 59.8 58.8 59.4C58.4 59 57.7333 59.4 57.4667 60.4666Z" fill="black"/>
</svg>
